#!OML:ASF F:\VICON\USERDATA\INSTALL\rory3\rory3.ASF
:FULLY-SPECIFIED
:DEGREES
19
root 0.7204319999999996 17.9347 -20.069900000000032 -3.0542899999999995 0.3594319999999973 -2.0226099999999994
lfemur 4.021189999999981 -1.7682900000000008 -19.1673
ltibia 48.0158
lfoot 13.378599999999981 -20.669300000000003
ltoes -1.9389200000000006
rfemur -23.34869999999999 6.229550000000003 25.0737
rtibia 31.562500000000007
rfoot -3.707689999999996 -4.325820000000002
rtoes 5.989839999999998
lowerback 1.0 -1.6737299999999953 0.08508780000000005
upperback -0.4579860000000009 -2.0088899999999947 2.898700000000002
thorax -7.034169999999997 -0.9286920000000023 3.3751899999999995
lowerneck -16.6502 -2.2694799999999997 -2.373030000000001
upperneck 23.4671 -2.2126300000000017 -1.2698100000000023
head 10.2669 -1.3899000000000006 -0.3540689999999998
lclavicle -2.124510000000002e-14 -2.623959999999998e-14
lhumerus -27.232 1.2594900000000009 80.8946
lradius 30.871300000000012
lwrist 5.731379999999995
lhand -31.355300000000003 21.9743
lfingers 7.12502
lthumb -4.626200000000009 51.9038
rclavicle -2.124510000000002e-14 -2.623959999999998e-14
rhumerus -40.455 -33.665199999999984 -64.53200000000001
rradius 17.89770000000001
rwrist 14.038899999999988
rhand -18.2134 1.0
rfingers 7.12502
rthumb 8.06437 -8.693880000000002
20
root 0.6654139999999998 17.9914 -19.52909999999998 -3.0148400000000004 0.20052200000000298 -3.51458
lfemur -0.44853500000000857 -1.5792599999999994 -16.857800000000005
ltibia 55.12499999999997
lfoot 17.257099999999955 -22.161900000000028
ltoes 7.361140000000008
rfemur -21.005100000000002 6.552960000000001 27.2266
rtibia 30.805300000000006
rfoot -4.838580000000009 -4.738829999999998
rtoes 5.983969999999996
lowerback 1.0 -1.7876699999999972 1.2992999999999995
upperback -0.708095999999999 -1.9568999999999968 3.3999200000000025
thorax -7.149409999999998 -0.9361749999999989 3.208279999999995
lowerneck -15.2038 -2.219770000000001 -2.8219300000000027
upperneck 23.1316 -2.1449000000000034 -1.004190000000002
head 9.88084 -1.3647799999999994 -0.15508
lclavicle 5.360970000000013e-15 1.1927099999999996e-14
lhumerus -28.719000000000005 2.373459999999999 81.4137
lradius 30.348700000000008
lwrist 5.627920000000003
lhand -29.4854 25.8192
lfingers 7.12502
lthumb -2.820479999999998 55.7803
rclavicle 5.360970000000013e-15 1.1927099999999996e-14
rhumerus -39.314400000000006 -31.160399999999985 -66.12129999999999
rradius 17.84509999999998
rwrist 14.10479999999999
rhand -19.289099999999998 1.0
rfingers 7.12502
rthumb 7.026049999999998 -8.691749999999999
21
root 0.26600709049440197 17.929945051497494 5.919083325367122 -1.9648427027650788 -3.281347361211903 -8.059663353306563
lfemur -8.711667077344377 -0.6090379182584553 -10.639456170304877
ltibia 63.57515118410191
lfoot 0.17455599930647558 -5.977411125978663
ltoes -4.531704445519859
rfemur -8.190101362293758 6.525108982853999 33.95723656100958
rtibia 19.862396148498267
rfoot -3.232533078437494 -10.186587284131315
rtoes 8.59694414421786
lowerback 1.0 0.2652839755816588 3.5805403959456683
upperback 0.33346285942438253 1.3682186421962694 2.518804216047721
thorax -5.689888840666414 0.6594835427365681 0.9776268162677761
lowerneck -15.720422121747152 -2.5501053486055487 -1.5839306080068012
upperneck 24.957402743848267 -2.89118589689969 -1.1282722474209035
head 10.65040219633527 -1.6157362551419243 -0.5003349151694453
lclavicle -1.8666321498689064e-15 -1.6334617388194466e-16
lhumerus -30.544706439272694 2.542408728717505 82.32041492631865
lradius 23.934729948006737
lwrist 4.971899360199694
lhand -27.45338981202129 25.058921322752994
lfingers nan
lthumb -0.9015132984018325 55.07930242542144
rclavicle -1.9260669254206706e-15 -1.9907539478795521e-16
rhumerus -35.89270084589278 -34.33871180138751 -67.27068956869205
rradius 18.791157112456272
rwrist 12.603200760440561
rhand -18.77088165068022 1.0
rfingers nan
rthumb 7.514385322756824 -7.621713487973272
22
root 0.1404361526803511 17.88324087273639 1.741871877976239 -1.7637856763982511 -4.953170767140584 -6.460109998469893
lfemur -12.455001606560183 0.8969181033616787 -9.943998130722418
ltibia 66.96459084598229
lfoot -3.8148504095959495 -0.5873796182101272
ltoes -0.07810725131745455
rfemur -5.734865877022857 7.169700932808988 33.273907936670476
rtibia 13.879775943469749
rfoot -1.1116197484425134 -9.886947453181564
rtoes 10.878623558740834
lowerback 1.0 0.7297505800818394 2.336971575493285
upperback 0.43396702114506097 1.5687575380827938 2.026563560160702
thorax -5.76992398372869 0.7680804515431541 0.23777691089384878
lowerneck -15.874041387408868 -2.7831043583070736 -1.1461276148416304
upperneck 23.77265113961906 -3.411131826692124 -0.9071831127262188
head 10.184553262425046 -1.7871694189436322 -0.5185528769923355
lclavicle -1.841983937537272e-15 -1.5024213376042925e-16
lhumerus -32.19314971008272 2.7788912358190117 82.94050927737375
lradius 20.194366558886838
lwrist 5.255317814140765
lhand -27.495183807803723 23.986719004793724
lfingers nan
lthumb -0.831839440285064 54.33674689580779
rclavicle -1.884937279171763e-15 -1.8737159817134618e-16
rhumerus -33.24467100368656 -33.807671299441964 -68.74393850102513
rradius 19.73801001452864
rwrist 11.38687671989101
rhand -18.679174572223015 1.0
rfingers nan
rthumb 7.695729040817084 -7.130280006977241
23
root 0.06741927890608834 17.857747191506085 -0.9999070530366989 -1.6605018839667252 -5.1417322981096225 -5.69559225787864
lfemur -16.540604400861607 1.7234855058332585 -9.9462220809917
ltibia 66.83234403215383
lfoot -5.652844217170374 -1.1836563418618058
ltoes 6.959247184409504
rfemur -5.541425382575142 7.375100210114646 33.0150339737556
rtibia 14.574859083080142
rfoot 0.4398931545983764 -7.404451929814815
rtoes 11.265013595901419
lowerback 1.0 0.8664345115324266 2.036384533591758
upperback 0.41599410168404904 1.7756466551943964 1.7337596957061878
thorax -5.819872213974854 0.8569962173548513 -0.2130360181501545
lowerneck -15.842914478136334 -2.9876240705113086 -0.9795990567852239
upperneck 22.92835712710629 -3.78978106462139 -0.6540402546032419
head 9.813868915039663 -1.9187143555272934 -0.495623667034521
lclavicle -1.8286680520952747e-15 -1.4237482498918314e-16
lhumerus -33.89917580739771 3.022699869076879 83.37319105875956
lradius 19.744148636609868
lwrist 5.7519616260936335
lhand -27.449430356215572 23.962219886194394
lfingers nan
lthumb -0.7687407939147717 54.34768210306954
rclavicle -1.923170220277755e-15 -2.2657886618618616e-16
rhumerus -30.412551780453448 -31.103375221401684 -70.31883827832685
rradius 20.719509311343863
rwrist 10.286842875055655
rhand -18.634240974317535 1.0
rfingers nan
rthumb 7.817692475964311 -6.775566356438635
24
root 0.00879431765979044 17.840100977588662 -2.589838342043837 -1.6323689849587713 -4.979914266036358 -5.643148167386215
lfemur -20.914168058052063 1.8045799251060344 -10.671971399193218
ltibia 64.90846446833415
lfoot -6.829452572007408 0.628509972130594
ltoes 6.6260972266681275
rfemur -5.345994067630878 7.232060488061619 33.03484995193553
rtibia 16.36456887401479
rfoot 0.5280020350598686 -5.638818208736266
rtoes 10.158603949323325
lowerback 1.0 0.9112193766296273 2.1947871608037732
upperback 0.39991045721191487 1.8742828164566334 1.5969289936542306
thorax -5.457532954703982 0.9400340310724151 -0.5780688793593614
lowerneck -15.993371945859776 -3.118071409219574 -1.0680175539770638
upperneck 22.904095743759182 -4.0066276824597225 -0.421361538693119
head 9.92307504036899 -1.9848019110091206 -0.452288049684444
lclavicle -1.8154772803274106e-15 -1.3251049544070988e-16
lhumerus -35.26075588597568 3.6540510778353736 83.3388992056799
lradius 20.04846519759006
lwrist 5.6995439946118545
lhand -27.219025056118962 24.295409788019438
lfingers nan
lthumb -0.4311903314013821 54.825015394827055
rclavicle -1.881445734277677e-15 -1.9689954638558112e-16
rhumerus -27.7042924191939 -27.865865094407546 -71.54007542128778
rradius 22.0898664874857
rwrist 8.560031232894655
rhand -18.669878646118008 1.0
rfingers nan
rthumb 7.8704434917053625 -6.8552451899959586
25
root -0.024759956069237754 17.827894145813826 -3.5143055988664624 -1.6917013099793827 -4.839324966813349 -5.779232462378574
lfemur -24.04527188500866 1.5473785278554977 -11.473856088376808
ltibia 60.91644332881521
lfoot -8.75221340030112 1.338080494812374
ltoes 0.9880501224744882
rfemur -5.014508091533628 7.0882468561558305 33.04312278417823
rtibia 18.425315196629686
rfoot -0.7780025015799232 -5.723236787415185
rtoes 9.220477350232212
lowerback 1.0 1.0365880063987993 2.4212399514679697
upperback 0.4308279043274954 2.0955302172945887 1.4675287157947308
thorax -5.300489865095162 1.0432055121842407 -0.6269755728772266
lowerneck -15.74417499679355 -3.2073240290914296 -1.1446819839743587
upperneck 22.395034003412842 -4.1853771431788385 -0.23742300605934447
head 9.767908639184354 -2.041109399458199 -0.40243830516115764
lclavicle -1.854001014809466e-15 -1.6545174622759202e-16
lhumerus -36.31942996033405 5.114449796134009 83.02647357647776
lradius 20.63284046865839
lwrist 5.572849633851323
lhand -26.934331638371557 24.563472727122278
lfingers nan
lthumb -0.1824052140020581 54.87598708286286
rclavicle -1.8776567434700674e-15 -1.9737634221520367e-16
rhumerus -25.4133906871389 -24.623447299486884 -71.77270551562843
rradius 23.896397373680877
rwrist 5.641867331857338
rhand -18.614068664524567 1.0
rfingers nan
rthumb 7.979823514931981 -6.7969166969301575
26
root -0.029049476797753382 17.820239362823568 -3.9918842982252745 -1.7458360655907466 -4.920002790734426 -5.959722448856363
lfemur -25.56331421487615 1.306921385905285 -11.930801778101877
ltibia 55.02903611274439
lfoot -9.156401156388021 3.292104670415928
ltoes -3.9170510387000084
rfemur -4.651031656594297 7.151357587518177 33.123328986771035
rtibia 23.7761174446782
rfoot -1.9916798807979639 -6.32066385001257
rtoes 8.504883401080424
lowerback 1.0 1.160087349652994 2.4795592010147667
upperback 0.44771900195483305 2.048873090802517 1.2593395434179873
thorax -5.278750479321963 1.0176818440176063 -0.8710144384768241
lowerneck -15.553571828309938 -3.263077181302649 -1.1731372781091576
upperneck 22.176627733483873 -4.309171160161716 -0.10442866728631385
head 9.7002246347791 -2.076676776108456 -0.3713985526997303
lclavicle -1.8473511544013663e-15 -1.6145299819181774e-16
lhumerus -37.36327782868524 6.322263916778505 82.69206196407679
lradius 21.70785232193809
lwrist 5.495403465790041
lhand -26.749129942684146 25.051219924761334
lfingers nan
lthumb 0.09554554547146232 55.37585348464513
rclavicle -1.892100381012837e-15 -2.105170295070174e-16
rhumerus -23.844958904220782 -21.87787235670194 -71.62924055981613
rradius 26.046865081439307
rwrist 3.641497310608522
rhand -18.51997562645912 1.0
rfingers nan
rthumb 8.064172891061 -7.115864333232117
